<svg width="216" height="152" viewBox="0 0 216 152" fill="none" xmlns="http://www.w3.org/2000/svg">
<path d="M180.455 46.8458C163.381 39.9731 146.328 43.0528 135.03 46.8971C129.368 48.79 126.313 54.9336 128.265 60.57C130.216 66.2064 136.301 69.2865 141.938 67.335C153.043 63.6073 163.831 63.4386 172.389 66.8834C189.421 73.7393 197.853 92.8017 191.182 109.374C184.51 125.947 165.224 133.852 148.192 126.996C122.352 116.595 118.531 75.4731 118.44 74.8546C118.228 72.247 113.412 19.8591 75.2576 4.50052C47.1633 -6.80838 15.2885 6.45875 4.16445 34.0939C-6.9596 61.729 6.83446 93.3794 34.9288 104.688C48.6628 110.217 64.4312 110.209 80.4541 104.629C86.0905 102.677 89.0621 96.5002 87.1107 90.8638C85.1592 85.2274 78.982 82.2557 73.3456 84.2072C62.1731 88.1019 51.9697 88.2635 42.9945 84.6507C25.9626 77.7948 17.5309 58.7324 24.202 42.1596C30.8731 25.5869 50.16 17.6822 67.1919 24.5381C93.032 34.9396 96.853 76.0609 96.9436 76.6795C97.1221 79.1283 101.888 131.641 140.126 147.034C168.22 158.342 200.095 145.075 211.219 117.44C222.343 89.8051 208.549 58.1547 180.455 46.8458Z" fill="white"/>
</svg>
