<svg width="24" height="23" viewBox="0 0 24 23" fill="none" xmlns="http://www.w3.org/2000/svg">
<path d="M22.35 11.753C22.35 11.04 22.281 10.304 22.166 9.61401H12.207V13.685H17.911C17.681 14.996 16.922 16.146 15.795 16.882L19.199 19.527C21.2 17.664 22.35 14.95 22.35 11.753Z" fill="#4280EF"/>
<path d="M12.2071 22.0571C15.0591 22.0571 17.4511 21.1141 19.1991 19.5041L15.7951 16.8821C14.8521 17.5261 13.6331 17.8941 12.2071 17.8941C9.4471 17.8941 7.1241 16.0311 6.2731 13.5471L2.7771 16.2381C4.5711 19.8031 8.2051 22.0571 12.2071 22.0571Z" fill="#34A353"/>
<path d="M6.27301 13.524C5.83601 12.213 5.83601 10.787 6.27301 9.47596L2.77701 6.76196C1.28201 9.75196 1.28201 13.271 2.77701 16.238L6.27301 13.524Z" fill="#F6B704"/>
<path d="M12.2071 5.12903C13.7021 5.10603 15.1741 5.68103 16.2551 6.71603L19.2681 3.68003C17.3591 1.88603 14.8291 0.920028 12.2071 0.943028C8.2051 0.943028 4.5711 3.19703 2.7771 6.76203L6.2731 9.47603C7.1241 6.96903 9.4471 5.12903 12.2071 5.12903Z" fill="#E54335"/>
</svg>
