<svg width="534" height="184" viewBox="0 0 534 184" fill="none" xmlns="http://www.w3.org/2000/svg">
<path d="M196.455 62.8458C179.381 55.9731 162.328 59.0528 151.03 62.8971C145.368 64.79 142.313 70.9336 144.265 76.57C146.216 82.2064 152.301 85.2865 157.938 83.335C169.043 79.6073 179.831 79.4386 188.389 82.8834C205.421 89.7393 213.853 108.802 207.182 125.374C200.51 141.947 181.224 149.852 164.192 142.996C138.352 132.595 134.531 91.4731 134.44 90.8546C134.228 88.247 129.412 35.8591 91.2576 20.5005C63.1633 9.19162 31.2885 22.4588 20.1644 50.0939C9.0404 77.729 22.8345 109.379 50.9288 120.688C64.6628 126.217 80.4312 126.209 96.4541 120.629C102.09 118.677 105.062 112.5 103.111 106.864C101.159 101.227 94.982 98.2557 89.3456 100.207C78.1731 104.102 67.9697 104.263 58.9945 100.651C41.9626 93.7948 33.5309 74.7324 40.202 58.1596C46.8731 41.5869 66.16 33.6822 83.1919 40.5381C109.032 50.9396 112.853 92.0609 112.944 92.6795C113.122 95.1283 117.888 147.641 156.126 163.034C184.22 174.342 216.095 161.075 227.219 133.44C238.343 105.805 224.549 74.1547 196.455 62.8458Z" fill="#EC8305"/>
<path d="M273.776 63.846V121H266.314V63.846H273.776ZM308.388 75.244C313.854 75.244 318.282 76.9113 321.672 80.246C325.061 83.526 326.756 88.282 326.756 94.514V121H319.376V95.58C319.376 91.0973 318.255 87.6807 316.014 85.33C313.772 82.9247 310.711 81.722 306.83 81.722C302.894 81.722 299.75 82.952 297.4 85.412C295.104 87.872 293.956 91.4527 293.956 96.154V121H286.494V76.064H293.956V82.46C295.432 80.164 297.427 78.3873 299.942 77.13C302.511 75.8727 305.326 75.244 308.388 75.244ZM357.231 82.214H347.801V121H340.339V82.214H334.517V76.064H340.339V72.866C340.339 67.8367 341.624 64.174 344.193 61.878C346.817 59.5273 350.999 58.352 356.739 58.352V64.584C353.459 64.584 351.136 65.24 349.769 66.552C348.457 67.8093 347.801 69.914 347.801 72.866V76.064H357.231V82.214ZM369.785 68.766C368.364 68.766 367.161 68.274 366.177 67.29C365.193 66.306 364.701 65.1033 364.701 63.682C364.701 62.2607 365.193 61.058 366.177 60.074C367.161 59.09 368.364 58.598 369.785 58.598C371.152 58.598 372.3 59.09 373.229 60.074C374.213 61.058 374.705 62.2607 374.705 63.682C374.705 65.1033 374.213 66.306 373.229 67.29C372.3 68.274 371.152 68.766 369.785 68.766ZM373.393 76.064V121H365.931V76.064H373.393ZM408.005 75.244C413.472 75.244 417.9 76.9113 421.289 80.246C424.678 83.526 426.373 88.282 426.373 94.514V121H418.993V95.58C418.993 91.0973 417.872 87.6807 415.631 85.33C413.39 82.9247 410.328 81.722 406.447 81.722C402.511 81.722 399.368 82.952 397.017 85.412C394.721 87.872 393.573 91.4527 393.573 96.154V121H386.111V76.064H393.573V82.46C395.049 80.164 397.044 78.3873 399.559 77.13C402.128 75.8727 404.944 75.244 408.005 75.244ZM442.416 68.766C440.995 68.766 439.792 68.274 438.808 67.29C437.824 66.306 437.332 65.1033 437.332 63.682C437.332 62.2607 437.824 61.058 438.808 60.074C439.792 59.09 440.995 58.598 442.416 58.598C443.783 58.598 444.931 59.09 445.86 60.074C446.844 61.058 447.336 62.2607 447.336 63.682C447.336 65.1033 446.844 66.306 445.86 67.29C444.931 68.274 443.783 68.766 442.416 68.766ZM446.024 76.064V121H438.562V76.064H446.024ZM467.844 82.214V108.7C467.844 110.887 468.308 112.445 469.238 113.374C470.167 114.249 471.78 114.686 474.076 114.686H479.57V121H472.846C468.691 121 465.575 120.043 463.498 118.13C461.42 116.217 460.382 113.073 460.382 108.7V82.214H454.56V76.064H460.382V64.748H467.844V76.064H479.57V82.214H467.844ZM529.611 96.81C529.611 98.2313 529.529 99.7347 529.365 101.32H493.449C493.722 105.748 495.226 109.219 497.959 111.734C500.747 114.194 504.109 115.424 508.045 115.424C511.27 115.424 513.949 114.686 516.081 113.21C518.268 111.679 519.798 109.657 520.673 107.142H528.709C527.506 111.461 525.101 114.987 521.493 117.72C517.885 120.399 513.402 121.738 508.045 121.738C503.781 121.738 499.954 120.781 496.565 118.868C493.23 116.955 490.606 114.249 488.693 110.75C486.78 107.197 485.823 103.097 485.823 98.45C485.823 93.8033 486.752 89.7307 488.611 86.232C490.47 82.7333 493.066 80.0547 496.401 78.196C499.79 76.2827 503.672 75.326 508.045 75.326C512.309 75.326 516.081 76.2553 519.361 78.114C522.641 79.9727 525.156 82.542 526.905 85.822C528.709 89.0473 529.611 92.71 529.611 96.81ZM521.903 95.252C521.903 92.4093 521.274 89.9767 520.017 87.954C518.76 85.8767 517.038 84.3187 514.851 83.28C512.719 82.1867 510.341 81.64 507.717 81.64C503.945 81.64 500.72 82.8427 498.041 85.248C495.417 87.6533 493.914 90.988 493.531 95.252H521.903Z" fill="white"/>
</svg>
