<svg width="145" height="41" viewBox="0 0 145 41" fill="none" xmlns="http://www.w3.org/2000/svg">
<rect x="5.98682" width="14.861" height="14.861" rx="7.4305" fill="url(#paint0_linear_7133_17820)"/>
<rect x="25.0327" width="14.861" height="14.861" rx="7.4305" fill="url(#paint1_linear_7133_17820)"/>
<path d="M0.00805664 16.9961H9.78727C17.075 16.9961 22.9828 22.9039 22.9828 30.1916V40.1417C10.2942 40.1417 0.00805664 29.6847 0.00805664 16.9961Z" fill="url(#paint2_linear_7133_17820)"/>
<path d="M45.9919 16.9961H36.2127C28.925 16.9961 23.0172 22.9039 23.0172 30.1916V40.1417C35.7058 40.1417 45.9919 29.6847 45.9919 16.9961Z" fill="url(#paint3_linear_7133_17820)"/>
<path d="M23.0171 33.6934V40.1844C23.0171 40.0819 23.0171 39.9879 23.0171 39.8854C22.8548 32.7368 17.1752 29.0813 9.82154 27.9283C2.4679 26.7753 1.20387 24.3839 1.20387 24.3839C0.520607 22.3341 -0.0772446 19.2594 0.00815846 16.9961C0.00815846 16.9961 3.45009 20.2843 9.82154 21.4373C16.193 22.5903 23.0171 26.3995 23.0171 33.6934Z" fill="url(#paint4_linear_7133_17820)"/>
<path d="M22.9829 33.6934V40.1844C22.9829 40.0819 22.9829 39.9879 22.9829 39.8854C23.1452 32.7368 28.8248 29.0813 36.1785 27.9283C43.5321 26.7753 44.7961 24.3839 44.7961 24.3839C45.4794 22.3341 46.0772 19.2594 45.9918 16.9961C45.9918 16.9961 42.5499 20.2843 36.1785 21.4373C29.807 22.5903 22.9829 26.3995 22.9829 33.6934Z" fill="url(#paint5_linear_7133_17820)"/>
<path d="M64.092 7.3438C64.092 7.86646 63.966 8.35646 63.714 8.8138C63.4713 9.27113 63.084 9.6398 62.552 9.9198C62.0293 10.1998 61.3667 10.3398 60.564 10.3398H58.926V14.0918H56.966V4.3198H60.564C61.32 4.3198 61.964 4.45046 62.496 4.7118C63.028 4.97313 63.4247 5.33246 63.686 5.7898C63.9567 6.24713 64.092 6.76513 64.092 7.3438ZM60.48 8.7578C61.0213 8.7578 61.4227 8.63646 61.684 8.3938C61.9453 8.1418 62.076 7.7918 62.076 7.3438C62.076 6.3918 61.544 5.9158 60.48 5.9158H58.926V8.7578H60.48ZM72.8056 6.3358V14.0918H70.8316V13.1118C70.5796 13.4478 70.2482 13.7138 69.8376 13.9098C69.4362 14.0965 68.9976 14.1898 68.5216 14.1898C67.9149 14.1898 67.3782 14.0638 66.9116 13.8118C66.4449 13.5505 66.0762 13.1725 65.8056 12.6778C65.5442 12.1738 65.4136 11.5765 65.4136 10.8858V6.3358H67.3736V10.6058C67.3736 11.2218 67.5276 11.6978 67.8356 12.0338C68.1436 12.3605 68.5636 12.5238 69.0956 12.5238C69.6369 12.5238 70.0616 12.3605 70.3696 12.0338C70.6776 11.6978 70.8316 11.2218 70.8316 10.6058V6.3358H72.8056ZM76.6994 7.5398C76.9514 7.12913 77.2781 6.80713 77.6794 6.5738C78.0901 6.34046 78.5568 6.2238 79.0794 6.2238V8.2818H78.5614C77.9454 8.2818 77.4788 8.42646 77.1614 8.7158C76.8534 9.00513 76.6994 9.50913 76.6994 10.2278V14.0918H74.7394V6.3358H76.6994V7.5398ZM87.6096 10.0458C87.6096 10.3258 87.5909 10.5778 87.5536 10.8018H81.8836C81.9303 11.3618 82.1263 11.8005 82.4716 12.1178C82.8169 12.4351 83.2416 12.5938 83.7456 12.5938C84.4736 12.5938 84.9916 12.2811 85.2996 11.6558H87.4136C87.1896 12.4025 86.7603 13.0185 86.1256 13.5038C85.4909 13.9798 84.7116 14.2178 83.7876 14.2178C83.0409 14.2178 82.3689 14.0545 81.7716 13.7278C81.1836 13.3918 80.7216 12.9205 80.3856 12.3138C80.0589 11.7071 79.8956 11.0071 79.8956 10.2138C79.8956 9.41113 80.0589 8.70646 80.3856 8.0998C80.7123 7.49313 81.1696 7.02646 81.7576 6.6998C82.3456 6.37313 83.0223 6.2098 83.7876 6.2098C84.5249 6.2098 85.1829 6.36846 85.7616 6.6858C86.3496 7.00313 86.8023 7.4558 87.1196 8.0438C87.4463 8.62246 87.6096 9.2898 87.6096 10.0458ZM85.5796 9.4858C85.5703 8.9818 85.3883 8.58046 85.0336 8.2818C84.6789 7.9738 84.2449 7.8198 83.7316 7.8198C83.2463 7.8198 82.8356 7.96913 82.4996 8.2678C82.1729 8.55713 81.9723 8.96313 81.8976 9.4858H85.5796ZM91.9002 9.1918C91.9002 8.23046 92.1148 7.3718 92.5442 6.6158C92.9828 5.85046 93.5755 5.2578 94.3222 4.8378C95.0782 4.40846 95.9228 4.1938 96.8562 4.1938C97.9482 4.1938 98.9048 4.4738 99.7262 5.0338C100.547 5.5938 101.121 6.36846 101.448 7.3578H99.1942C98.9702 6.89113 98.6528 6.54113 98.2422 6.3078C97.8408 6.07446 97.3742 5.9578 96.8422 5.9578C96.2728 5.9578 95.7642 6.09313 95.3162 6.3638C94.8775 6.62513 94.5322 6.99846 94.2802 7.4838C94.0375 7.96913 93.9162 8.53846 93.9162 9.1918C93.9162 9.8358 94.0375 10.4051 94.2802 10.8998C94.5322 11.3851 94.8775 11.7631 95.3162 12.0338C95.7642 12.2951 96.2728 12.4258 96.8422 12.4258C97.3742 12.4258 97.8408 12.3091 98.2422 12.0758C98.6528 11.8331 98.9702 11.4785 99.1942 11.0118H101.448C101.121 12.0105 100.547 12.7898 99.7262 13.3498C98.9142 13.9005 97.9575 14.1758 96.8562 14.1758C95.9228 14.1758 95.0782 13.9658 94.3222 13.5458C93.5755 13.1165 92.9828 12.5238 92.5442 11.7678C92.1148 11.0118 91.9002 10.1531 91.9002 9.1918ZM107.49 6.2238C108.078 6.2238 108.601 6.35446 109.058 6.6158C109.516 6.8678 109.87 7.2458 110.122 7.7498C110.384 8.24446 110.514 8.8418 110.514 9.5418V14.0918H108.554V9.8078C108.554 9.1918 108.4 8.72046 108.092 8.3938C107.784 8.0578 107.364 7.8898 106.832 7.8898C106.291 7.8898 105.862 8.0578 105.544 8.3938C105.236 8.72046 105.082 9.1918 105.082 9.8078V14.0918H103.122V3.7318H105.082V7.3018C105.334 6.9658 105.67 6.70446 106.09 6.5178C106.51 6.3218 106.977 6.2238 107.49 6.2238ZM111.874 10.1858C111.874 9.4018 112.028 8.70646 112.336 8.0998C112.653 7.49313 113.078 7.02646 113.61 6.6998C114.151 6.37313 114.753 6.2098 115.416 6.2098C115.995 6.2098 116.499 6.32646 116.928 6.5598C117.367 6.79313 117.717 7.08713 117.978 7.4418V6.3358H119.952V14.0918H117.978V12.9578C117.726 13.3218 117.376 13.6251 116.928 13.8678C116.489 14.1011 115.981 14.2178 115.402 14.2178C114.749 14.2178 114.151 14.0498 113.61 13.7138C113.078 13.3778 112.653 12.9065 112.336 12.2998C112.028 11.6838 111.874 10.9791 111.874 10.1858ZM117.978 10.2138C117.978 9.7378 117.885 9.3318 117.698 8.9958C117.511 8.65046 117.259 8.38913 116.942 8.2118C116.625 8.02513 116.284 7.9318 115.92 7.9318C115.556 7.9318 115.22 8.02046 114.912 8.1978C114.604 8.37513 114.352 8.63646 114.156 8.9818C113.969 9.3178 113.876 9.71913 113.876 10.1858C113.876 10.6525 113.969 11.0631 114.156 11.4178C114.352 11.7631 114.604 12.0291 114.912 12.2158C115.229 12.4025 115.565 12.4958 115.92 12.4958C116.284 12.4958 116.625 12.4071 116.942 12.2298C117.259 12.0431 117.511 11.7818 117.698 11.4458C117.885 11.1005 117.978 10.6898 117.978 10.2138ZM123.826 7.5398C124.078 7.12913 124.405 6.80713 124.806 6.5738C125.217 6.34046 125.684 6.2238 126.206 6.2238V8.2818H125.688C125.072 8.2818 124.606 8.42646 124.288 8.7158C123.98 9.00513 123.826 9.50913 123.826 10.2278V14.0918H121.866V6.3358H123.826V7.5398ZM128.521 5.4118C128.175 5.4118 127.886 5.30446 127.653 5.0898C127.429 4.8658 127.317 4.59046 127.317 4.2638C127.317 3.93713 127.429 3.66646 127.653 3.4518C127.886 3.2278 128.175 3.1158 128.521 3.1158C128.866 3.1158 129.151 3.2278 129.375 3.4518C129.608 3.66646 129.725 3.93713 129.725 4.2638C129.725 4.59046 129.608 4.8658 129.375 5.0898C129.151 5.30446 128.866 5.4118 128.521 5.4118ZM129.487 6.3358V14.0918H127.527V6.3358H129.487ZM133.705 7.9458V11.6978C133.705 11.9591 133.766 12.1505 133.887 12.2718C134.018 12.3838 134.232 12.4398 134.531 12.4398H135.441V14.0918H134.209C132.557 14.0918 131.731 13.2891 131.731 11.6838V7.9458H130.807V6.3358H131.731V4.4178H133.705V6.3358H135.441V7.9458H133.705ZM144.271 6.3358L139.469 17.7598H137.383L139.063 13.8958L135.955 6.3358H138.153L140.155 11.7538L142.185 6.3358H144.271Z" fill="white"/>
<path d="M62.072 24.7278V25.6158H59.792V33.0918H58.7V25.6158H56.408V24.7278H62.072ZM64.5082 27.5838C64.7002 27.2078 64.9722 26.9158 65.3242 26.7078C65.6842 26.4998 66.1202 26.3958 66.6322 26.3958V27.5238H66.3442C65.1202 27.5238 64.5082 28.1878 64.5082 29.5158V33.0918H63.4162V26.5158H64.5082V27.5838ZM73.7248 26.5158V33.0918H72.6328V32.1198C72.4248 32.4558 72.1328 32.7198 71.7568 32.9118C71.3888 33.0958 70.9808 33.1878 70.5328 33.1878C70.0208 33.1878 69.5608 33.0838 69.1528 32.8758C68.7448 32.6598 68.4208 32.3398 68.1808 31.9158C67.9488 31.4918 67.8328 30.9758 67.8328 30.3678V26.5158H68.9128V30.2238C68.9128 30.8718 69.0768 31.3718 69.4048 31.7238C69.7328 32.0678 70.1808 32.2398 70.7488 32.2398C71.3328 32.2398 71.7928 32.0598 72.1288 31.6998C72.4648 31.3398 72.6328 30.8158 72.6328 30.1278V26.5158H73.7248ZM77.8965 33.1998C77.3925 33.1998 76.9405 33.1158 76.5405 32.9478C76.1405 32.7718 75.8245 32.5318 75.5925 32.2278C75.3605 31.9158 75.2325 31.5598 75.2085 31.1598H76.3365C76.3685 31.4878 76.5205 31.7558 76.7925 31.9638C77.0725 32.1718 77.4365 32.2758 77.8845 32.2758C78.3005 32.2758 78.6285 32.1838 78.8685 31.9998C79.1085 31.8158 79.2285 31.5838 79.2285 31.3038C79.2285 31.0158 79.1005 30.8038 78.8445 30.6678C78.5885 30.5238 78.1925 30.3838 77.6565 30.2478C77.1685 30.1198 76.7685 29.9918 76.4565 29.8638C76.1525 29.7278 75.8885 29.5318 75.6645 29.2758C75.4485 29.0118 75.3405 28.6678 75.3405 28.2438C75.3405 27.9078 75.4405 27.5998 75.6405 27.3198C75.8405 27.0398 76.1245 26.8198 76.4925 26.6598C76.8605 26.4918 77.2805 26.4078 77.7525 26.4078C78.4805 26.4078 79.0685 26.5918 79.5165 26.9598C79.9645 27.3278 80.2045 27.8318 80.2365 28.4718H79.1445C79.1205 28.1278 78.9805 27.8518 78.7245 27.6438C78.4765 27.4358 78.1405 27.3318 77.7165 27.3318C77.3245 27.3318 77.0125 27.4158 76.7805 27.5838C76.5485 27.7518 76.4325 27.9718 76.4325 28.2438C76.4325 28.4598 76.5005 28.6398 76.6365 28.7838C76.7805 28.9198 76.9565 29.0318 77.1645 29.1198C77.3805 29.1998 77.6765 29.2918 78.0525 29.3958C78.5245 29.5238 78.9085 29.6518 79.2045 29.7798C79.5005 29.8998 79.7525 30.0838 79.9605 30.3318C80.1765 30.5798 80.2885 30.9038 80.2965 31.3038C80.2965 31.6638 80.1965 31.9878 79.9965 32.2758C79.7965 32.5638 79.5125 32.7918 79.1445 32.9598C78.7845 33.1198 78.3685 33.1998 77.8965 33.1998ZM83.1701 27.4158V31.2918C83.1701 31.6118 83.2381 31.8398 83.3741 31.9758C83.5101 32.1038 83.7461 32.1678 84.0821 32.1678H84.8861V33.0918H83.9021C83.2941 33.0918 82.8381 32.9518 82.5341 32.6718C82.2301 32.3918 82.0781 31.9318 82.0781 31.2918V27.4158H81.2261V26.5158H82.0781V24.8598H83.1701V26.5158H84.8861V27.4158H83.1701ZM95.6484 29.1678H93.0924V31.7598H92.0724V29.1678H89.5284V28.2438H92.0724V25.6398H93.0924V28.2438H95.6484V29.1678ZM107.243 24.7278V33.0918H106.151V29.2998H101.891V33.0918H100.799V24.7278H101.891V28.3998H106.151V24.7278H107.243ZM115.108 29.5518C115.108 29.7598 115.096 29.9798 115.072 30.2118H109.816C109.856 30.8598 110.076 31.3678 110.476 31.7358C110.884 32.0958 111.376 32.2758 111.952 32.2758C112.424 32.2758 112.816 32.1678 113.128 31.9518C113.448 31.7278 113.672 31.4318 113.8 31.0638H114.976C114.8 31.6958 114.448 32.2118 113.92 32.6118C113.392 33.0038 112.736 33.1998 111.952 33.1998C111.328 33.1998 110.768 33.0598 110.272 32.7798C109.784 32.4998 109.4 32.1038 109.12 31.5918C108.84 31.0718 108.7 30.4718 108.7 29.7918C108.7 29.1118 108.836 28.5158 109.108 28.0038C109.38 27.4918 109.76 27.0998 110.248 26.8278C110.744 26.5478 111.312 26.4078 111.952 26.4078C112.576 26.4078 113.128 26.5438 113.608 26.8158C114.088 27.0878 114.456 27.4638 114.712 27.9438C114.976 28.4158 115.108 28.9518 115.108 29.5518ZM113.98 29.3238C113.98 28.9078 113.888 28.5518 113.704 28.2558C113.52 27.9518 113.268 27.7238 112.948 27.5718C112.636 27.4118 112.288 27.3318 111.904 27.3318C111.352 27.3318 110.88 27.5078 110.488 27.8598C110.104 28.2118 109.884 28.6998 109.828 29.3238H113.98ZM117.641 24.2118V33.0918H116.549V24.2118H117.641ZM120.594 27.7278C120.81 27.3518 121.13 27.0398 121.554 26.7918C121.986 26.5358 122.486 26.4078 123.054 26.4078C123.638 26.4078 124.166 26.5478 124.638 26.8278C125.118 27.1078 125.494 27.5038 125.766 28.0158C126.038 28.5198 126.174 29.1078 126.174 29.7798C126.174 30.4438 126.038 31.0358 125.766 31.5558C125.494 32.0758 125.118 32.4798 124.638 32.7678C124.166 33.0558 123.638 33.1998 123.054 33.1998C122.494 33.1998 121.998 33.0758 121.566 32.8278C121.142 32.5718 120.818 32.2558 120.594 31.8798V36.2118H119.502V26.5158H120.594V27.7278ZM125.058 29.7798C125.058 29.2838 124.958 28.8518 124.758 28.4838C124.558 28.1158 124.286 27.8358 123.942 27.6438C123.606 27.4518 123.234 27.3558 122.826 27.3558C122.426 27.3558 122.054 27.4558 121.71 27.6558C121.374 27.8478 121.102 28.1318 120.894 28.5078C120.694 28.8758 120.594 29.3038 120.594 29.7918C120.594 30.2878 120.694 30.7238 120.894 31.0998C121.102 31.4678 121.374 31.7518 121.71 31.9518C122.054 32.1438 122.426 32.2398 122.826 32.2398C123.234 32.2398 123.606 32.1438 123.942 31.9518C124.286 31.7518 124.558 31.4678 124.758 31.0998C124.958 30.7238 125.058 30.2838 125.058 29.7798Z" fill="white"/>
<defs>
<linearGradient id="paint0_linear_7133_17820" x1="5.98682" y1="0" x2="20.7369" y2="14.9703" gradientUnits="userSpaceOnUse">
<stop stop-color="#7209B7"/>
<stop offset="1" stop-color="#A24DDB"/>
</linearGradient>
<linearGradient id="paint1_linear_7133_17820" x1="25.0327" y1="0" x2="39.7828" y2="14.9703" gradientUnits="userSpaceOnUse">
<stop stop-color="#F72585"/>
<stop offset="1" stop-color="#F284B7"/>
</linearGradient>
<linearGradient id="paint2_linear_7133_17820" x1="0.00805664" y1="16.9961" x2="22.9828" y2="40.1417" gradientUnits="userSpaceOnUse">
<stop stop-color="#7209B7"/>
<stop offset="1" stop-color="#A24DDB"/>
</linearGradient>
<linearGradient id="paint3_linear_7133_17820" x1="45.9919" y1="16.9961" x2="23.0172" y2="40.1417" gradientUnits="userSpaceOnUse">
<stop stop-color="#F72585"/>
<stop offset="1" stop-color="#F284B7"/>
</linearGradient>
<linearGradient id="paint4_linear_7133_17820" x1="8.76872" y1="33.2732" x2="18.38" y2="23.5904" gradientUnits="userSpaceOnUse">
<stop stop-color="white" stop-opacity="0"/>
<stop offset="1" stop-color="white" stop-opacity="0.23"/>
</linearGradient>
<linearGradient id="paint5_linear_7133_17820" x1="37.2313" y1="33.2732" x2="27.62" y2="23.5904" gradientUnits="userSpaceOnUse">
<stop stop-color="white" stop-opacity="0"/>
<stop offset="1" stop-color="white" stop-opacity="0.23"/>
</linearGradient>
</defs>
</svg>
