<svg width="24" height="24" viewBox="0 0 24 24" fill="none" xmlns="http://www.w3.org/2000/svg">
<g clip-path="url(#clip0_6008_76470)">
<path fill-rule="evenodd" clip-rule="evenodd" d="M51.873 6.35234L51.6465 5.27684H48.4995V18.0298H52.1355V9.37484C52.9958 8.24984 54.447 8.46884 54.909 8.61209V5.27834C54.4245 5.10434 52.7243 4.78484 51.873 6.35084V6.35234ZM44.5755 2.11784L41.0235 2.87234L41.0085 14.5438C41.0085 16.6963 42.627 18.2886 44.787 18.2886C45.9757 18.2886 46.854 18.0621 47.3407 17.8063V14.8438C46.8742 15.0298 44.5785 15.6973 44.5785 13.5538V8.37884H47.3407V5.27609H44.5785L44.5755 2.11784ZM34.725 8.97734C34.725 8.40884 35.1975 8.18984 35.961 8.18984C37.2249 8.2172 38.465 8.53816 39.5835 9.12734V5.69984C38.4302 5.24638 37.2001 5.02023 35.961 5.03384C33.018 5.03384 31.0432 6.57584 31.0432 9.14984C31.0432 13.1773 36.5745 12.5233 36.5745 14.2596C36.5745 14.9391 35.9895 15.1491 35.1772 15.1491C33.9727 15.1491 32.4172 14.6511 31.197 13.9866V17.4591C32.4532 18.0055 33.8074 18.2905 35.1772 18.2968C38.202 18.2968 40.287 16.8028 40.287 14.1831C40.287 9.83609 34.7243 10.6131 34.7243 8.97584L34.725 8.97734ZM10.41 7.13609C10.41 6.10859 11.265 5.71109 12.6465 5.71109C14.9329 5.76049 17.1766 6.34103 19.2 7.40684V1.20434C17.1135 0.384375 14.8882 -0.0243786 12.6465 0.000590333C7.3215 0.000590333 3.75 2.78984 3.75 7.44734C3.75 14.7343 13.7565 13.5508 13.7565 16.6918C13.7565 17.9203 12.7065 18.3013 11.229 18.3013C9.05025 18.3013 6.23625 17.3998 4.029 16.1998V22.4833C6.30151 23.4721 8.75147 23.9881 11.2297 23.9998C16.7025 23.9998 20.475 21.2961 20.475 16.5576C20.475 8.69309 10.41 10.0978 10.41 7.13759V7.13609Z" fill="#6772E5"/>
</g>
<defs>
<clipPath id="clip0_6008_76470">
<rect width="24" height="24" fill="white"/>
</clipPath>
</defs>
</svg>
