<svg width="452" height="247" viewBox="0 0 452 247" fill="none" xmlns="http://www.w3.org/2000/svg">
<path d="M115.592 187.1C164.009 187.1 203.259 147.86 203.259 99.4547C203.259 51.0497 164.009 11.8096 115.592 11.8096C67.1749 11.8096 27.9248 51.0497 27.9248 99.4547C27.9248 147.86 67.1749 187.1 115.592 187.1Z" fill="#EFF3FA"/>
<path d="M435.978 195.636H19.8418L84.6247 108.674L112.405 71.7951L136.656 98.0887L141.324 103.097L193.469 30.932L215.784 0.0854492L233.204 25.4684L292.522 111.861L316.431 84.5435L328.613 70.5431L338.974 82.95L435.978 195.636Z" fill="#D9E0EC"/>
<path d="M112.405 71.7954L111.266 195.637H19.8418L84.6247 108.675L112.405 71.7954Z" fill="#E8EDF8"/>
<path d="M215.784 0.0854492L212.027 182.66L141.323 103.097L215.784 0.0854492Z" fill="#E8EDF8"/>
<path d="M330.776 177.766L292.521 111.861L328.613 70.543L330.776 177.766Z" fill="#E8EDF8"/>
<path d="M2.30859 195.637H111.267H435.978H449.299" stroke="#CDD6E1" stroke-width="3" stroke-miterlimit="10" stroke-linecap="round" stroke-linejoin="round"/>
<path d="M237.303 214.076H266.222" stroke="#CDD6E1" stroke-width="3" stroke-miterlimit="10" stroke-linecap="round" stroke-linejoin="round"/>
<path d="M317 214.076H345.919" stroke="#CDD6E1" stroke-width="3" stroke-miterlimit="10" stroke-linecap="round" stroke-linejoin="round"/>
<path d="M299.353 214.076H305.501" stroke="#CDD6E1" stroke-width="3" stroke-miterlimit="10" stroke-linecap="round" stroke-linejoin="round"/>
<path d="M107.281 214.076H210.888" stroke="#CDD6E1" stroke-width="3" stroke-miterlimit="10" stroke-linecap="round" stroke-linejoin="round"/>
<path d="M63.5615 214.076H76.6547" stroke="#CDD6E1" stroke-width="3" stroke-miterlimit="10" stroke-linecap="round" stroke-linejoin="round"/>
<path d="M396.356 214.076H432.79" stroke="#CDD6E1" stroke-width="3" stroke-miterlimit="10" stroke-linecap="round" stroke-linejoin="round"/>
<path d="M8.34277 214.076H43.7513" stroke="#CDD6E1" stroke-width="3" stroke-miterlimit="10" stroke-linecap="round" stroke-linejoin="round"/>
<path d="M36.5781 229.442H151.001" stroke="#CDD6E1" stroke-width="3" stroke-miterlimit="10" stroke-linecap="round" stroke-linejoin="round"/>
<path d="M218.63 229.442H299.352" stroke="#CDD6E1" stroke-width="3" stroke-miterlimit="10" stroke-linecap="round" stroke-linejoin="round"/>
<path d="M340.909 229.442H421.632" stroke="#CDD6E1" stroke-width="3" stroke-miterlimit="10" stroke-linecap="round" stroke-linejoin="round"/>
<path d="M184.93 229.442H202.577" stroke="#CDD6E1" stroke-width="3" stroke-miterlimit="10" stroke-linecap="round" stroke-linejoin="round"/>
<path d="M274.419 244.695H372.106" stroke="#CDD6E1" stroke-width="3" stroke-miterlimit="10" stroke-linecap="round" stroke-linejoin="round"/>
<path d="M172.861 244.695H237.303" stroke="#CDD6E1" stroke-width="3" stroke-miterlimit="10" stroke-linecap="round" stroke-linejoin="round"/>
<path d="M131.874 244.695H151.001" stroke="#CDD6E1" stroke-width="3" stroke-miterlimit="10" stroke-linecap="round" stroke-linejoin="round"/>
<path d="M60.4873 244.695H102.727" stroke="#CDD6E1" stroke-width="3" stroke-miterlimit="10" stroke-linecap="round" stroke-linejoin="round"/>
<path d="M154.303 166.156C154.303 173.327 148.497 176.514 141.438 176.514C134.379 176.514 128.572 173.327 128.572 166.156C128.572 158.985 141.438 114.707 141.438 114.707C141.438 114.707 154.303 159.099 154.303 166.156Z" fill="white"/>
<path d="M141.323 153.635V194.271" stroke="#B9C0D0" stroke-width="2" stroke-miterlimit="10" stroke-linecap="round" stroke-linejoin="round"/>
<path d="M141.323 160.692L145.991 156.481" stroke="#B9C0D0" stroke-width="2" stroke-miterlimit="10" stroke-linecap="round" stroke-linejoin="round"/>
<path d="M141.324 170.367L134.606 162.399" stroke="#B9C0D0" stroke-width="2" stroke-miterlimit="10" stroke-linecap="round" stroke-linejoin="round"/>
<path d="M269.978 162.969C269.978 170.936 263.489 174.465 255.633 174.465C247.663 174.465 241.287 170.936 241.287 162.969C241.287 155.001 255.633 105.715 255.633 105.715C255.633 105.715 269.978 155.115 269.978 162.969Z" fill="white"/>
<path d="M255.633 148.968V194.271" stroke="#B9C0D0" stroke-width="2" stroke-miterlimit="10" stroke-linecap="round" stroke-linejoin="round"/>
<path d="M255.633 156.936L260.756 152.155" stroke="#B9C0D0" stroke-width="2" stroke-miterlimit="10" stroke-linecap="round" stroke-linejoin="round"/>
<path d="M255.633 167.749L248.118 158.757" stroke="#B9C0D0" stroke-width="2" stroke-miterlimit="10" stroke-linecap="round" stroke-linejoin="round"/>
<path d="M316.659 175.148C316.659 180.042 312.674 182.205 307.892 182.205C302.996 182.205 299.125 180.042 299.125 175.148C299.125 170.253 307.892 140.09 307.892 140.09C307.892 140.09 316.659 170.253 316.659 175.148Z" fill="white"/>
<path d="M307.777 166.611V194.271" stroke="#B9C0D0" stroke-width="2" stroke-miterlimit="10" stroke-linecap="round" stroke-linejoin="round"/>
<path d="M307.777 171.392L310.965 168.546" stroke="#B9C0D0" stroke-width="2" stroke-miterlimit="10" stroke-linecap="round" stroke-linejoin="round"/>
<path d="M307.778 177.994L303.224 172.53" stroke="#B9C0D0" stroke-width="2" stroke-miterlimit="10" stroke-linecap="round" stroke-linejoin="round"/>
<path d="M363.68 169.685C363.68 175.945 358.67 178.677 352.408 178.677C346.146 178.677 341.137 175.945 341.137 169.685C341.137 163.424 352.408 124.61 352.408 124.61C352.408 124.61 363.68 163.424 363.68 169.685Z" fill="white"/>
<path d="M352.408 158.644V194.271" stroke="#B9C0D0" stroke-width="2" stroke-miterlimit="10" stroke-linecap="round" stroke-linejoin="round"/>
<path d="M352.408 164.79L356.393 161.147" stroke="#B9C0D0" stroke-width="2" stroke-miterlimit="10" stroke-linecap="round" stroke-linejoin="round"/>
<path d="M352.409 173.327L346.488 166.27" stroke="#B9C0D0" stroke-width="2" stroke-miterlimit="10" stroke-linecap="round" stroke-linejoin="round"/>
<path opacity="0.8" d="M142.348 103.78L122.765 105.488L113.657 114.821L102.727 112.886L84.6243 124.155L78.9316 116.756L112.746 71.7954L142.348 103.78Z" fill="white"/>
<path opacity="0.6" d="M242.084 38.3306L232.862 36.2818L223.412 40.7209L215.784 38.7859L208.498 51.762L197.112 46.4122L184.361 51.762L182.197 46.7537L215.784 0.0854492L242.084 38.3306Z" fill="white"/>
<path opacity="0.6" d="M345.008 89.5517L335.445 97.0642L326.564 92.1697L314.04 99.4545L310.511 91.8282L329.069 70.543L345.008 89.5517Z" fill="white"/>
<path d="M103.752 38.1032C105.574 37.6479 107.282 37.5341 109.103 37.5341C110.811 37.5341 112.633 37.6479 114.34 37.8756C116.048 38.1032 117.87 38.5585 119.578 39.3553C121.285 40.1521 122.993 41.2903 124.018 43.2254L122.082 42.7701L124.132 41.1765C124.929 40.7212 125.612 40.1521 126.295 39.6968C127.775 38.7862 129.369 37.9894 131.077 37.4203C132.785 36.8512 134.492 36.3959 136.2 36.1682C138.022 36.0544 139.73 36.0544 141.551 36.5097C141.893 36.6235 142.007 36.965 141.893 37.1926C141.779 37.5341 141.551 37.6479 141.21 37.5341H141.096C139.616 37.1926 137.908 37.3065 136.314 37.5341C134.72 37.7618 133.126 38.3309 131.646 39.0138C130.166 39.6968 128.8 40.4936 127.434 41.4042C126.75 41.8595 126.067 42.4286 125.498 42.8839L123.676 44.4774C123.107 44.9327 122.424 44.8189 121.969 44.3636L121.855 44.4774L121.741 44.2498C121.285 42.9977 120.033 41.9733 118.667 41.2903C117.301 40.6074 115.707 40.0383 113.999 39.6968C112.405 39.3553 110.697 39.1277 108.99 39.0138C107.282 38.9 105.574 38.9 104.094 39.2415H103.98C103.638 39.3553 103.411 39.1277 103.297 38.7862C103.297 38.4447 103.411 38.1032 103.752 38.1032Z" fill="#989FB0"/>
<path d="M53.2005 69.2912C55.0222 68.8359 56.73 68.7221 58.5517 68.7221C60.2595 68.7221 62.0811 68.8359 63.7889 69.0636C65.4968 69.2912 67.3184 69.7465 69.0262 70.5433C70.734 71.3401 72.4418 72.4783 73.4665 74.4133L71.531 73.958L73.5804 72.3645C74.3774 71.9092 75.0605 71.3401 75.7436 70.8848C77.2237 69.9742 78.8177 69.1774 80.5255 68.6083C82.2333 68.0392 83.9411 67.5839 85.6489 67.3562C87.4706 67.2424 89.1784 67.2424 91 67.6977C91.3416 67.8115 91.4554 68.153 91.3416 68.3806C91.2277 68.7221 91 68.8359 90.6585 68.7221H90.5446C89.0645 68.3806 87.3567 68.4945 85.7627 68.7221C84.1688 68.9497 82.5748 69.5189 81.0947 70.2018C79.6146 70.8848 78.2484 71.6815 76.8821 72.5921C76.199 73.0474 75.5159 73.6166 74.9466 74.0719L73.125 75.6654C72.5557 76.1207 71.8726 76.0069 71.4172 75.5516L71.3033 75.4378L71.1894 75.2101C70.734 73.9581 69.4816 72.9336 68.1154 72.2507C66.7491 71.5677 65.1552 70.9986 63.4474 70.6571C61.8534 70.3156 60.1456 70.088 58.4378 69.9742C56.73 69.8604 55.0222 69.8604 53.5421 70.2018H53.4282C53.0867 70.3157 52.859 70.088 52.7451 69.7465C52.7451 69.6327 52.9728 69.2912 53.2005 69.2912Z" fill="#989FB0"/>
<path d="M116.048 64.8523C117.87 64.397 119.578 64.2831 121.399 64.2831C123.107 64.2831 124.929 64.397 126.637 64.6246C128.344 64.8523 130.166 65.3076 131.874 66.1043C133.582 66.9011 135.289 68.0394 136.314 69.9744L134.379 69.5191L136.428 67.9255C137.225 67.4702 137.908 66.9011 138.591 66.4458C140.071 65.5352 141.665 64.7384 143.373 64.1693C145.081 63.6002 146.789 63.1449 148.497 62.9172C150.318 62.8034 152.026 62.8034 153.848 63.2587C154.189 63.3725 154.303 63.714 154.189 63.9417C154.075 64.2831 153.848 64.397 153.506 64.2831H153.392C151.912 63.9417 150.204 64.0555 148.61 64.2831C147.016 64.5108 145.422 65.0799 143.942 65.7629C142.462 66.4458 141.096 67.2426 139.73 68.1532C139.047 68.6085 138.364 69.1776 137.794 69.6329L135.973 71.2265C135.403 71.6818 134.72 71.5679 134.265 71.1126L134.151 70.9988L134.037 70.7712C133.582 69.5191 132.329 68.4947 130.963 67.8117C129.597 67.1288 128.003 66.5596 126.295 66.2182C124.701 65.8767 122.993 65.649 121.285 65.5352C119.578 65.4214 117.87 65.4214 116.39 65.7629H116.276C115.934 65.8767 115.707 65.649 115.593 65.3076C115.593 65.1937 115.707 64.8523 116.048 64.8523Z" fill="#989FB0"/>
<g filter="url(#filter0_d_6008_76823)">
<path d="M299.125 66.4083C299.125 72.9589 293.826 78.2563 287.217 78.2563C287.103 78.2563 286.134 78.2563 279.012 78.2563C274.055 78.2563 266.135 78.2563 253.487 78.2563H247.447C239.528 78.4272 233.203 72.1044 233.203 64.4715C233.203 56.7818 239.585 50.4021 247.618 50.8008C254.513 29.2694 286.077 32.2884 288.755 54.5602C294.681 55.3008 299.125 60.3134 299.125 66.4083Z" fill="url(#paint0_linear_6008_76823)"/>
</g>
<path d="M287.217 78.2566C293.769 78.2566 299.125 72.9592 299.125 66.4086C299.125 59.858 293.769 54.5605 287.217 54.5605C280.664 54.5605 275.309 59.858 275.309 66.4086C275.309 72.9592 280.664 78.2566 287.217 78.2566Z" fill="url(#paint1_linear_6008_76823)"/>
<path d="M267.788 78.3704C279.468 78.3704 288.983 68.9149 288.983 57.2377C288.983 45.5606 279.468 36.105 267.788 36.105C256.109 36.105 246.593 45.5606 246.593 57.2377C246.593 68.9149 256.052 78.3704 267.788 78.3704Z" fill="url(#paint2_linear_6008_76823)"/>
<g filter="url(#filter1_d_6008_76823)">
<path d="M195.681 87.2514C195.681 92.189 191.687 96.1821 186.705 96.1821C186.62 96.1821 185.889 96.1821 180.521 96.1821C176.785 96.1821 170.815 96.1821 161.281 96.1821H156.729C150.759 96.311 145.992 91.545 145.992 85.7916C145.992 79.9952 150.801 75.1864 156.857 75.4869C162.054 59.2571 185.847 61.5327 187.865 78.3207C192.332 78.8789 195.681 82.6572 195.681 87.2514Z" fill="url(#paint3_linear_6008_76823)"/>
</g>
<path d="M186.706 96.1817C191.645 96.1817 195.682 92.1886 195.682 87.251C195.682 82.3133 191.645 78.3203 186.706 78.3203C181.767 78.3203 177.73 82.3133 177.73 87.251C177.73 92.1886 181.767 96.1817 186.706 96.1817Z" fill="url(#paint4_linear_6008_76823)"/>
<path d="M172.061 96.2677C180.865 96.2677 188.038 89.1404 188.038 80.3384C188.038 71.5366 180.865 64.4092 172.061 64.4092C163.257 64.4092 156.085 71.5366 156.085 80.3384C156.085 89.1404 163.214 96.2677 172.061 96.2677Z" fill="url(#paint5_linear_6008_76823)"/>
<defs>
<filter id="filter0_d_6008_76823" x="211.203" y="25.1562" width="109.922" height="86.1035" filterUnits="userSpaceOnUse" color-interpolation-filters="sRGB">
<feFlood flood-opacity="0" result="BackgroundImageFix"/>
<feColorMatrix in="SourceAlpha" type="matrix" values="0 0 0 0 0 0 0 0 0 0 0 0 0 0 0 0 0 0 127 0" result="hardAlpha"/>
<feOffset dy="11"/>
<feGaussianBlur stdDeviation="11"/>
<feColorMatrix type="matrix" values="0 0 0 0 0.397708 0 0 0 0 0.47749 0 0 0 0 0.575 0 0 0 0.27 0"/>
<feBlend mode="normal" in2="BackgroundImageFix" result="effect1_dropShadow_6008_76823"/>
<feBlend mode="normal" in="SourceGraphic" in2="effect1_dropShadow_6008_76823" result="shape"/>
</filter>
<filter id="filter1_d_6008_76823" x="123.992" y="53.4482" width="93.6895" height="75.7363" filterUnits="userSpaceOnUse" color-interpolation-filters="sRGB">
<feFlood flood-opacity="0" result="BackgroundImageFix"/>
<feColorMatrix in="SourceAlpha" type="matrix" values="0 0 0 0 0 0 0 0 0 0 0 0 0 0 0 0 0 0 127 0" result="hardAlpha"/>
<feOffset dy="11"/>
<feGaussianBlur stdDeviation="11"/>
<feColorMatrix type="matrix" values="0 0 0 0 0.397708 0 0 0 0 0.47749 0 0 0 0 0.575 0 0 0 0.27 0"/>
<feBlend mode="normal" in2="BackgroundImageFix" result="effect1_dropShadow_6008_76823"/>
<feBlend mode="normal" in="SourceGraphic" in2="effect1_dropShadow_6008_76823" result="shape"/>
</filter>
<linearGradient id="paint0_linear_6008_76823" x1="266.164" y1="53.5549" x2="266.142" y2="78.7135" gradientUnits="userSpaceOnUse">
<stop stop-color="white"/>
<stop offset="0.9964" stop-color="#ECF0F5"/>
</linearGradient>
<linearGradient id="paint1_linear_6008_76823" x1="274.041" y1="52.0097" x2="284.595" y2="63.5549" gradientUnits="userSpaceOnUse">
<stop stop-color="#BCCBE1"/>
<stop offset="0.9942" stop-color="white" stop-opacity="0"/>
</linearGradient>
<linearGradient id="paint2_linear_6008_76823" x1="244.608" y1="47.5405" x2="261.245" y2="54.0526" gradientUnits="userSpaceOnUse">
<stop stop-color="#E2E8F0"/>
<stop offset="0.9942" stop-color="white" stop-opacity="0"/>
</linearGradient>
<linearGradient id="paint3_linear_6008_76823" x1="170.836" y1="77.563" x2="170.82" y2="96.5268" gradientUnits="userSpaceOnUse">
<stop stop-color="white"/>
<stop offset="0.9964" stop-color="#ECF0F5"/>
</linearGradient>
<linearGradient id="paint4_linear_6008_76823" x1="176.775" y1="76.3975" x2="184.729" y2="85.0999" gradientUnits="userSpaceOnUse">
<stop stop-color="#BCCBE1"/>
<stop offset="0.9942" stop-color="white" stop-opacity="0"/>
</linearGradient>
<linearGradient id="paint5_linear_6008_76823" x1="154.589" y1="73.0289" x2="167.129" y2="77.9375" gradientUnits="userSpaceOnUse">
<stop stop-color="#E2E8F0"/>
<stop offset="0.9942" stop-color="white" stop-opacity="0"/>
</linearGradient>
</defs>
</svg>
